<svg width="757" height="136" viewBox="0 0 757 136" fill="none" xmlns="http://www.w3.org/2000/svg">
<path d="M84.7426 28.4439C85.1447 29.803 85.7905 31.0778 86.6484 32.2061C87.6091 33.3995 89.355 33.588 90.5484 32.6273C91.7418 31.6666 91.9303 29.9207 90.9696 28.7273C90.5705 28.1775 90.2681 27.5638 90.0752 26.9125C89.7372 25.7321 89.9452 24.8741 90.7772 24.0395C93.0262 21.7775 93.7724 18.8421 92.8702 15.7689C92.4695 14.4246 91.8195 13.1677 90.954 12.0639L90.9462 12.0613V12.0535V12.0561C89.9691 10.8757 88.2201 10.7111 87.0397 11.6882C85.8593 12.6653 85.6947 14.4143 86.6718 15.5947C86.6796 15.6025 87.2646 16.3591 87.5506 17.3263C87.8782 18.4625 87.6702 19.2971 86.8434 20.1239C84.5996 22.3807 83.8482 25.3369 84.7426 28.4439Z" fill="url(#paint0_linear_401_68)"/>
<path d="M61.8181 26.655C62.344 28.628 63.2232 30.4894 64.4129 32.1488L64.4181 32.1436C64.8747 32.6914 65.5246 33.0423 66.2331 33.1235C66.9415 33.2047 67.654 33.01 68.2227 32.5798C68.7914 32.1496 69.1726 31.5169 69.2872 30.8131C69.4018 30.1093 69.2409 29.3884 68.8381 28.8C68.0584 27.6699 67.4837 26.4114 67.1403 25.082C66.5007 22.521 67.0103 20.35 68.7003 18.4364C71.6643 15.085 72.6081 10.9744 71.4303 6.54923C70.9027 4.57589 70.0218 2.71452 68.8303 1.05543V1.05803C67.8966 -0.128869 66.1843 -0.349869 64.9797 0.561431C63.7754 1.47247 63.5221 3.18015 64.4103 4.40163H64.4051C64.4181 4.41723 65.5751 5.98763 66.1081 8.12483C66.7451 10.6806 66.2329 12.8542 64.5429 14.7652C61.5815 18.1166 60.6403 22.2272 61.8181 26.655Z" fill="url(#paint1_linear_401_68)"/>
<path d="M40.3685 28.4466C40.7652 29.808 41.4114 31.0837 42.2743 32.2088C43.2358 33.4007 44.9812 33.5876 46.173 32.6261C47.3649 31.6647 47.5518 29.9193 46.5903 28.7274H46.5929C46.5877 28.7196 45.9871 27.9266 45.6985 26.9152C45.3605 25.7348 45.5685 24.8768 46.4005 24.0422C48.6521 21.7802 49.3957 18.8448 48.4935 15.7716C48.0913 14.427 47.4395 13.1701 46.5721 12.0666V12.064L46.5695 12.0562V12.0588C46.207 11.6161 45.7162 11.2965 45.1646 11.1441C44.613 10.9917 44.0277 11.0139 43.4892 11.2077C42.9508 11.4016 42.4856 11.7575 42.1577 12.2265C41.8298 12.6955 41.6553 13.2546 41.6581 13.8268C41.6581 14.5028 41.8999 15.119 42.2977 15.5974C42.3029 15.6052 42.8879 16.3618 43.1713 17.329C43.5041 18.4652 43.2935 19.2998 42.4693 20.1266C40.2203 22.3834 39.4741 25.3396 40.3685 28.4466Z" fill="url(#paint2_linear_401_68)"/>
<path d="M130.346 33C128.812 33 127.566 34.2402 127.566 35.7716V57.96H122.028V52.4116C122.018 46.286 117.052 41.3244 110.926 41.32C109.351 41.3203 107.795 41.6566 106.36 42.3062C104.925 42.9559 103.646 43.904 102.606 45.0874C101.567 43.9045 100.287 42.9569 98.8525 42.3077C97.4178 41.6585 95.8611 41.3227 94.2864 41.3227C92.7117 41.3227 91.155 41.6585 89.7204 42.3077C88.2857 42.9569 87.0059 43.9045 85.9664 45.0874C84.9276 43.9034 83.6481 42.9547 82.2133 42.3048C80.7785 41.6549 79.2215 41.3187 77.6464 41.3187C76.0713 41.3187 74.5143 41.6549 73.0795 42.3048C71.6447 42.9547 70.3652 43.9034 69.3264 45.0874C68.2876 43.9034 67.0081 42.9547 65.5733 42.3048C64.1385 41.6549 62.5815 41.3187 61.0064 41.3187C59.4313 41.3187 57.8743 41.6549 56.4395 42.3048C55.0047 42.9547 53.7252 43.9034 52.6864 45.0874C51.6476 43.9034 50.3681 42.9547 48.9333 42.3048C47.4985 41.6549 45.9415 41.3187 44.3664 41.3187C42.7913 41.3187 41.2343 41.6549 39.7995 42.3048C38.3647 42.9547 37.0852 43.9034 36.0464 45.0874C35.0088 43.9026 33.7299 42.9532 32.2954 42.303C30.8609 41.6528 29.304 41.3168 27.729 41.3174C22.6723 41.3242 18.2572 44.7432 16.9858 49.6374H8.3174C6.78626 49.639 5.5458 50.8805 5.5458 52.4116V57.96H2.7716C2.03653 57.96 1.33156 58.252 0.811783 58.7718C0.292007 59.2916 0 59.9965 0 60.7316C0 61.4667 0.292007 62.1716 0.811783 62.6914C1.33156 63.2112 2.03653 63.5032 2.7716 63.5032H5.5458V69.0516C5.5458 70.5856 6.786 71.8232 8.3174 71.8232H16.6374V124.52C16.6431 130.644 21.6073 135.607 27.7316 135.612C29.3067 135.611 30.8636 135.274 32.2983 134.624C33.733 133.974 35.0126 133.025 36.0516 131.842C37.0911 133.024 38.3709 133.972 39.8056 134.621C41.2402 135.27 42.7969 135.606 44.3716 135.606C45.9463 135.606 47.503 135.27 48.9377 134.621C50.3723 133.972 51.6521 133.024 52.6916 131.842C53.7311 133.024 55.0109 133.972 56.4456 134.621C57.8802 135.27 59.4369 135.606 61.0116 135.606C62.5863 135.606 64.143 135.27 65.5777 134.621C67.0124 133.972 68.2921 133.024 69.3316 131.842C70.3695 133.027 71.6487 133.977 73.0836 134.628C74.5185 135.279 76.076 135.616 77.6516 135.616C79.2272 135.616 80.7847 135.279 82.2196 134.628C83.6545 133.977 84.9337 133.027 85.9716 131.842C87.0095 133.027 88.2887 133.977 89.7236 134.628C91.1585 135.279 92.716 135.616 94.2916 135.616C95.8672 135.616 97.4247 135.279 98.8596 134.628C100.295 133.977 101.574 133.027 102.612 131.842C104.099 133.536 106.067 134.737 108.255 135.283C110.442 135.83 112.744 135.697 114.853 134.901C116.963 134.106 118.779 132.686 120.061 130.831C121.342 128.976 122.028 126.774 122.026 124.52V63.5032H130.346C131.875 63.5032 133.117 62.263 133.117 60.7316V35.7716C133.117 34.2402 131.875 33 130.346 33ZM11.0916 66.28V55.1832H16.6374V66.28H11.0916ZM27.7316 130.061C24.673 130.058 22.1931 127.581 22.1858 124.523V52.4116C22.1887 49.3496 24.6696 46.8676 27.7316 46.8632C30.7936 46.8676 33.2745 49.3496 33.2774 52.4116V124.52C33.273 127.58 30.7918 130.059 27.7316 130.061ZM44.3716 130.061C41.313 130.058 38.8331 127.581 38.8258 124.523V52.4116C38.8287 49.3506 41.308 46.8689 44.369 46.8632C47.4321 46.8661 49.9145 49.3485 49.9174 52.4116V124.52C49.913 127.581 47.4302 130.061 44.369 130.061M61.009 130.061C57.9504 130.058 55.4705 127.581 55.4632 124.523V52.4116C55.4661 49.3506 57.9454 46.8689 61.0064 46.8632C64.0705 46.8648 66.5545 49.3475 66.5574 52.4116V124.52C66.553 127.581 64.0702 130.061 61.009 130.061ZM77.6464 130.061C74.5883 130.058 72.1089 127.581 72.1032 124.523V52.4116C72.1048 49.3498 74.5846 46.8676 77.6464 46.8632C80.7105 46.8648 83.1945 49.3475 83.1974 52.4116V124.52C83.193 127.581 80.7102 130.061 77.649 130.061M94.289 130.061C91.2309 130.058 88.7515 127.581 88.7458 124.523V52.4116C88.7471 49.3509 91.2257 46.8689 94.2864 46.8632C97.3505 46.8648 99.8345 49.3475 99.8374 52.4116V124.52C99.833 127.582 97.3487 130.062 94.2864 130.061M116.475 124.523C116.383 127.519 113.927 129.901 110.929 129.901C107.931 129.901 105.475 127.519 105.383 124.523V52.4116C105.385 49.3509 107.863 46.8689 110.924 46.8632C113.989 46.8632 116.475 49.3465 116.477 52.4116L116.475 124.523Z" fill="url(#paint3_linear_401_68)"/>
<path d="M162.47 103.1C159.557 103.1 156.847 102.623 154.34 101.67C151.84 100.717 149.673 99.3567 147.84 97.59C146 95.83 144.567 93.76 143.54 91.38C142.513 89.0067 142 86.3967 142 83.55C142 80.71 142.513 78.1 143.54 75.72C144.567 73.3467 146.007 71.2767 147.86 69.51C149.713 67.75 151.883 66.3933 154.37 65.44C156.857 64.48 159.573 64 162.52 64C165.8 64 168.763 64.57 171.41 65.71C174.057 66.8433 176.28 68.5067 178.08 70.7L172.46 75.88C171.167 74.4067 169.727 73.3 168.14 72.56C166.553 71.8267 164.827 71.46 162.96 71.46C161.193 71.46 159.573 71.7467 158.1 72.32C156.62 72.8933 155.34 73.72 154.26 74.8C153.18 75.88 152.343 77.16 151.75 78.64C151.157 80.1133 150.86 81.75 150.86 83.55C150.86 85.35 151.157 86.99 151.75 88.47C152.343 89.9433 153.18 91.22 154.26 92.3C155.34 93.38 156.62 94.2067 158.1 94.78C159.573 95.36 161.193 95.65 162.96 95.65C164.827 95.65 166.553 95.28 168.14 94.54C169.727 93.8 171.167 92.6767 172.46 91.17L178.08 96.35C176.28 98.5433 174.057 100.217 171.41 101.37C168.763 102.523 165.783 103.1 162.47 103.1ZM192.71 102.45H183.96V64.65H200.32C203.707 64.65 206.623 65.2 209.07 66.3C211.517 67.4 213.407 68.9733 214.74 71.02C216.073 73.0733 216.74 75.5233 216.74 78.37C216.74 81.1767 216.073 83.5967 214.74 85.63C213.407 87.6633 211.517 89.22 209.07 90.3C206.623 91.38 203.707 91.92 200.32 91.92H188.82L192.71 88.09V102.45ZM217.44 102.45H207.99L198.54 88.74H207.88L217.44 102.45ZM192.71 67.62V89.06L188.82 84.96H199.84C202.54 84.96 204.557 84.3733 205.89 83.2C207.217 82.0333 207.88 80.4233 207.88 78.37C207.88 76.2833 207.217 74.6633 205.89 73.51C204.557 72.3567 202.54 71.78 199.84 71.78H188.82L192.71 67.62ZM232.41 102.45H223.66V64.65H232.41V102.45ZM253.78 103.1C250.76 103.1 247.863 102.697 245.09 101.89C242.317 101.077 240.083 100.023 238.39 98.73L241.36 92.14C242.98 93.2933 244.9 94.2367 247.12 94.97C249.333 95.71 251.573 96.08 253.84 96.08C255.567 96.08 256.96 95.91 258.02 95.57C259.087 95.2233 259.87 94.7467 260.37 94.14C260.877 93.5267 261.13 92.8233 261.13 92.03C261.13 91.0233 260.733 90.2233 259.94 89.63C259.147 89.0367 258.103 88.55 256.81 88.17C255.51 87.79 254.08 87.43 252.52 87.09C250.953 86.75 249.387 86.3267 247.82 85.82C246.253 85.3133 244.82 84.6667 243.52 83.88C242.227 83.0867 241.177 82.04 240.37 80.74C239.557 79.4467 239.15 77.7933 239.15 75.78C239.15 73.62 239.737 71.6467 240.91 69.86C242.077 68.08 243.84 66.66 246.2 65.6C248.553 64.5333 251.513 64 255.08 64C257.453 64 259.793 64.28 262.1 64.84C264.407 65.4 266.44 66.2367 268.2 67.35L265.5 73.99C263.74 72.9833 261.977 72.2367 260.21 71.75C258.443 71.2633 256.717 71.02 255.03 71.02C253.337 71.02 251.95 71.22 250.87 71.62C249.79 72.0133 249.017 72.5267 248.55 73.16C248.077 73.7867 247.84 74.5133 247.84 75.34C247.84 76.3133 248.237 77.0967 249.03 77.69C249.823 78.2833 250.867 78.76 252.16 79.12C253.46 79.48 254.893 79.84 256.46 80.2C258.027 80.56 259.593 80.9767 261.16 81.45C262.72 81.9167 264.15 82.5467 265.45 83.34C266.743 84.1267 267.797 85.17 268.61 86.47C269.417 87.7633 269.82 89.4 269.82 91.38C269.82 93.5067 269.227 95.45 268.04 97.21C266.853 98.9767 265.08 100.4 262.72 101.48C260.36 102.56 257.38 103.1 253.78 103.1ZM299.85 102.45H291.1V64.65H307.46C310.847 64.65 313.763 65.2 316.21 66.3C318.657 67.4 320.547 68.9733 321.88 71.02C323.213 73.0733 323.88 75.5233 323.88 78.37C323.88 81.1767 323.213 83.6067 321.88 85.66C320.547 87.7133 318.657 89.2867 316.21 90.38C313.763 91.48 310.847 92.03 307.46 92.03H295.96L299.85 88.09V102.45ZM299.85 67.62V89.06L295.96 84.9H306.97C309.67 84.9 311.687 84.3233 313.02 83.17C314.353 82.0233 315.02 80.4233 315.02 78.37C315.02 76.2833 314.353 74.6633 313.02 73.51C311.687 72.3567 309.67 71.78 306.97 71.78H295.96L299.85 67.62ZM339.37 102.45H330.63V64.65H346.99C350.37 64.65 353.287 65.2 355.74 66.3C358.187 67.4 360.077 68.9733 361.41 71.02C362.737 73.0733 363.4 75.5233 363.4 78.37C363.4 81.1767 362.737 83.5967 361.41 85.63C360.077 87.6633 358.187 89.22 355.74 90.3C353.287 91.38 350.37 91.92 346.99 91.92H335.49L339.37 88.09V102.45ZM364.11 102.45H354.66L345.21 88.74H354.55L364.11 102.45ZM339.37 67.62V89.06L335.49 84.96H346.5C349.2 84.96 351.217 84.3733 352.55 83.2C353.883 82.0333 354.55 80.4233 354.55 78.37C354.55 76.2833 353.883 74.6633 352.55 73.51C351.217 72.3567 349.2 71.78 346.5 71.78H335.49L339.37 67.62ZM388.68 103.1C385.687 103.1 382.923 102.613 380.39 101.64C377.85 100.667 375.653 99.3 373.8 97.54C371.947 95.7733 370.507 93.7033 369.48 91.33C368.453 88.95 367.94 86.3567 367.94 83.55C367.94 80.7433 368.453 78.1533 369.48 75.78C370.507 73.4 371.957 71.33 373.83 69.57C375.697 67.8033 377.89 66.4333 380.41 65.46C382.93 64.4867 385.667 64 388.62 64C391.607 64 394.353 64.4867 396.86 65.46C399.36 66.4333 401.537 67.8033 403.39 69.57C405.243 71.33 406.693 73.39 407.74 75.75C408.78 78.11 409.3 80.71 409.3 83.55C409.3 86.3567 408.78 88.96 407.74 91.36C406.693 93.7533 405.243 95.8233 403.39 97.57C401.537 99.31 399.36 100.667 396.86 101.64C394.353 102.613 391.627 103.1 388.68 103.1ZM388.62 95.65C390.313 95.65 391.87 95.36 393.29 94.78C394.717 94.2067 395.97 93.38 397.05 92.3C398.13 91.22 398.967 89.9433 399.56 88.47C400.153 86.99 400.45 85.35 400.45 83.55C400.45 81.75 400.153 80.1133 399.56 78.64C398.967 77.16 398.137 75.88 397.07 74.8C396.01 73.72 394.76 72.8933 393.32 72.32C391.88 71.7467 390.313 71.46 388.62 71.46C386.927 71.46 385.37 71.7467 383.95 72.32C382.53 72.8933 381.28 73.72 380.2 74.8C379.12 75.88 378.283 77.16 377.69 78.64C377.097 80.1133 376.8 81.75 376.8 83.55C376.8 85.3167 377.097 86.9467 377.69 88.44C378.283 89.9333 379.11 91.22 380.17 92.3C381.23 93.38 382.48 94.2067 383.92 94.78C385.36 95.36 386.927 95.65 388.62 95.65ZM423.99 88.68V81.66H442.14V88.68H423.99ZM424.64 71.67V102.45H415.89V64.65H444.46V71.67H424.64ZM459.16 102.45H450.41V64.65H459.16V102.45ZM501.48 103.1C498.567 103.1 495.86 102.623 493.36 101.67C490.853 100.717 488.683 99.3567 486.85 97.59C485.01 95.83 483.58 93.76 482.56 91.38C481.533 89.0067 481.02 86.3967 481.02 83.55C481.02 80.71 481.533 78.1 482.56 75.72C483.58 73.3467 485.02 71.2767 486.88 69.51C488.733 67.75 490.9 66.3933 493.38 65.44C495.867 64.48 498.587 64 501.54 64C504.813 64 507.773 64.57 510.42 65.71C513.067 66.8433 515.29 68.5067 517.09 70.7L511.47 75.88C510.177 74.4067 508.737 73.3 507.15 72.56C505.57 71.8267 503.843 71.46 501.97 71.46C500.203 71.46 498.583 71.7467 497.11 72.32C495.63 72.8933 494.35 73.72 493.27 74.8C492.19 75.88 491.353 77.16 490.76 78.64C490.167 80.1133 489.87 81.75 489.87 83.55C489.87 85.35 490.167 86.99 490.76 88.47C491.353 89.9433 492.19 91.22 493.27 92.3C494.35 93.38 495.63 94.2067 497.11 94.78C498.583 95.36 500.203 95.65 501.97 95.65C503.843 95.65 505.57 95.28 507.15 94.54C508.737 93.8 510.177 92.6767 511.47 91.17L517.09 96.35C515.29 98.5433 513.067 100.217 510.42 101.37C507.773 102.523 504.793 103.1 501.48 103.1ZM541.33 103.1C538.343 103.1 535.583 102.613 533.05 101.64C530.51 100.667 528.313 99.3 526.46 97.54C524.607 95.7733 523.167 93.7033 522.14 91.33C521.113 88.95 520.6 86.3567 520.6 83.55C520.6 80.7433 521.113 78.1533 522.14 75.78C523.167 73.4 524.613 71.33 526.48 69.57C528.353 67.8033 530.55 66.4333 533.07 65.46C535.59 64.4867 538.327 64 541.28 64C544.267 64 547.013 64.4867 549.52 65.46C552.02 66.4333 554.197 67.8033 556.05 69.57C557.903 71.33 559.353 73.39 560.4 75.75C561.44 78.11 561.96 80.71 561.96 83.55C561.96 86.3567 561.44 88.96 560.4 91.36C559.353 93.7533 557.903 95.8233 556.05 97.57C554.197 99.31 552.02 100.667 549.52 101.64C547.013 102.613 544.283 103.1 541.33 103.1ZM541.28 95.65C542.973 95.65 544.53 95.36 545.95 94.78C547.37 94.2067 548.62 93.38 549.7 92.3C550.78 91.22 551.62 89.9433 552.22 88.47C552.813 86.99 553.11 85.35 553.11 83.55C553.11 81.75 552.813 80.1133 552.22 78.64C551.62 77.16 550.79 75.88 549.73 74.8C548.67 73.72 547.42 72.8933 545.98 72.32C544.54 71.7467 542.973 71.46 541.28 71.46C539.587 71.46 538.03 71.7467 536.61 72.32C535.19 72.8933 533.94 73.72 532.86 74.8C531.78 75.88 530.943 77.16 530.35 78.64C529.75 80.1133 529.45 81.75 529.45 83.55C529.45 85.3167 529.75 86.9467 530.35 88.44C530.943 89.9333 531.77 91.22 532.83 92.3C533.89 93.38 535.14 94.2067 536.58 94.78C538.02 95.36 539.587 95.65 541.28 95.65ZM577.2 102.45H568.56V64.65H575.8L598.1 91.87H594.59V64.65H603.23V102.45H596.05L573.69 75.24H577.2V102.45ZM630.28 103.1C627.367 103.1 624.66 102.623 622.16 101.67C619.653 100.717 617.483 99.3567 615.65 97.59C613.81 95.83 612.38 93.76 611.36 91.38C610.333 89.0067 609.82 86.3967 609.82 83.55C609.82 80.71 610.333 78.1 611.36 75.72C612.38 73.3467 613.82 71.2767 615.68 69.51C617.533 67.75 619.7 66.3933 622.18 65.44C624.667 64.48 627.387 64 630.34 64C633.613 64 636.573 64.57 639.22 65.71C641.867 66.8433 644.09 68.5067 645.89 70.7L640.27 75.88C638.977 74.4067 637.537 73.3 635.95 72.56C634.37 71.8267 632.643 71.46 630.77 71.46C629.003 71.46 627.383 71.7467 625.91 72.32C624.43 72.8933 623.15 73.72 622.07 74.8C620.99 75.88 620.153 77.16 619.56 78.64C618.967 80.1133 618.67 81.75 618.67 83.55C618.67 85.35 618.967 86.99 619.56 88.47C620.153 89.9433 620.99 91.22 622.07 92.3C623.15 93.38 624.43 94.2067 625.91 94.78C627.383 95.36 629.003 95.65 630.77 95.65C632.643 95.65 634.37 95.28 635.95 94.54C637.537 93.8 638.977 92.6767 640.27 91.17L645.89 96.35C644.09 98.5433 641.867 100.217 639.22 101.37C636.573 102.523 633.593 103.1 630.28 103.1ZM659.81 86.68V79.88H678.01V86.68H659.81ZM660.46 71.67V95.43H681.03V102.45H651.76V64.65H680.33V71.67H660.46ZM696.75 102.45H688V64.65H704.36C707.747 64.65 710.663 65.2 713.11 66.3C715.557 67.4 717.447 68.9733 718.78 71.02C720.113 73.0733 720.78 75.5233 720.78 78.37C720.78 81.1767 720.113 83.6067 718.78 85.66C717.447 87.7133 715.557 89.2867 713.11 90.38C710.663 91.48 707.747 92.03 704.36 92.03H692.86L696.75 88.09V102.45ZM696.75 67.62V89.06L692.86 84.9H703.87C706.57 84.9 708.587 84.3233 709.92 83.17C711.253 82.0233 711.92 80.4233 711.92 78.37C711.92 76.2833 711.253 74.6633 709.92 73.51C708.587 72.3567 706.57 71.78 703.87 71.78H692.86L696.75 67.62ZM744.1 102.45H735.36V71.78H723.26V64.65H756.2V71.78H744.1V102.45Z" fill="#18216D"/>
<defs>
<linearGradient id="paint0_linear_401_68" x1="84.3749" y1="11.0508" x2="93.2435" y2="11.0508" gradientUnits="userSpaceOnUse">
<stop stop-color="#671963"/>
<stop offset="1" stop-color="#5A1A64"/>
</linearGradient>
<linearGradient id="paint1_linear_401_68" x1="61.325" y1="0" x2="71.9229" y2="0" gradientUnits="userSpaceOnUse">
<stop stop-color="#8C155E"/>
<stop offset="1" stop-color="#7E1760"/>
</linearGradient>
<linearGradient id="paint2_linear_401_68" x1="40" y1="11.0441" x2="48.8674" y2="11.0441" gradientUnits="userSpaceOnUse">
<stop stop-color="#B11159"/>
<stop offset="0.755" stop-color="#A0135B"/>
</linearGradient>
<linearGradient id="paint3_linear_401_68" x1="0" y1="33" x2="133.117" y2="33" gradientUnits="userSpaceOnUse">
<stop stop-color="#F00B51"/>
<stop offset="0.29" stop-color="#B11159"/>
<stop offset="0.37" stop-color="#A0135B"/>
<stop offset="0.465" stop-color="#8C155E"/>
<stop offset="0.53" stop-color="#7E1760"/>
<stop offset="0.635" stop-color="#671963"/>
<stop offset="0.695" stop-color="#5A1A64"/>
<stop offset="1" stop-color="#18216D"/>
</linearGradient>
</defs>
</svg>
