<svg xmlns="http://www.w3.org/2000/svg" version="1.1" xmlns:xlink="http://www.w3.org/1999/xlink" width="2000" height="134" viewBox="0 0 2000 134"><svg xml:space="preserve" width="2000" height="134" data-version="2" data-id="lg_PyRWtjWtneG8jifMBo" viewBox="0 0 769 134" x="0" y="0"><rect width="100%" height="100%" fill="transparent"></rect><g transform="matrix(.26 0 0 .26 72.94 82.103)"><linearGradient id="a" x1="0" x2="1" y1="0" y2="0" gradientUnits="objectBoundingBox"><stop offset="0%" stop-color="#f00b51"></stop><stop offset="100%" stop-color="#730062"></stop></linearGradient><path fill="url(#a)" d="M501.34 117.34c-5.9 0-10.69 4.77-10.69 10.66v85.34h-21.3V192c-.039-23.56-19.14-42.643-42.7-42.66a42.6 42.6 0 0 0-32 14.49 42.6 42.6 0 0 0-64 0 42.57 42.57 0 0 0-64 0 42.57 42.57 0 0 0-64 0 42.57 42.57 0 0 0-64 0 42.5 42.5 0 0 0-31.99-14.5c-19.449.026-36.43 13.176-41.32 32H32c-5.889.006-10.66 4.781-10.66 10.67v21.34H10.67a10.66 10.66 0 1 0 0 21.32h10.67V256c0 5.9 4.77 10.66 10.66 10.66h32v202.68c.022 23.555 19.115 42.643 42.67 42.66a42.6 42.6 0 0 0 32-14.5 42.6 42.6 0 0 0 64 0 42.6 42.6 0 0 0 64 0 42.53 42.53 0 0 0 64 0 42.53 42.53 0 0 0 64 0 42.63 42.63 0 0 0 74.67-28.16V234.66h32c5.88 0 10.66-4.77 10.66-10.66v-96c0-5.89-4.78-10.66-10.66-10.66m-458.67 128v-42.68H64v42.68zm64 245.31c-11.764-.011-21.302-9.536-21.33-21.3V192c.011-11.777 9.553-21.323 21.33-21.34 11.777.017 21.319 9.563 21.33 21.34v277.34c-.017 11.77-9.56 21.304-21.33 21.31m64 0c-11.764-.011-21.302-9.536-21.33-21.3V192c.011-11.773 9.547-21.318 21.32-21.34 11.781.011 21.329 9.559 21.34 21.34v277.34c-.017 11.774-9.566 21.31-21.34 21.31m64 0c-11.764-.011-21.302-9.536-21.33-21.3V192c.011-11.773 9.547-21.318 21.32-21.34 11.785.006 21.339 9.555 21.35 21.34v277.34c-.017 11.774-9.566 21.31-21.34 21.31m63.99 0c-11.762-.011-21.298-9.538-21.32-21.3V192c.006-11.776 9.544-21.323 21.32-21.34 11.785.006 21.339 9.555 21.35 21.34v277.34c-.017 11.774-9.566 21.31-21.34 21.31m64 0c-11.762-.011-21.298-9.538-21.32-21.3V192c.005-11.772 9.538-21.318 21.31-21.34 11.785.006 21.339 9.555 21.35 21.34v277.34c-.017 11.778-9.572 21.316-21.35 21.31m85.34-21.3c-.353 11.526-9.799 20.687-21.33 20.687-11.531 0-20.977-9.161-21.33-20.687V192c.005-11.772 9.538-21.318 21.31-21.34 11.789 0 21.349 9.551 21.36 21.34z" transform="translate(-256 -314.68)"></path></g><g transform="matrix(.26 0 0 .26 97.9 22.475)"><linearGradient id="b" x1="0" x2="1" y1="0" y2="0" gradientUnits="objectBoundingBox"><stop offset="0%" stop-color="#f00b51"></stop><stop offset="100%" stop-color="#730062"></stop></linearGradient><path fill="url(#b)" d="M336.36 109.56a45 45 0 0 0 7.33 14.47c3.695 4.59 10.41 5.315 15 1.62 4.59-3.695 5.315-10.41 1.62-15a23 23 0 0 1-3.44-6.98c-1.3-4.54-.5-7.84 2.7-11.05 8.65-8.7 11.52-19.99 8.05-31.81a43 43 0 0 0-7.37-14.25l-.03-.01v-.03.01c-3.758-4.54-10.485-5.173-15.025-1.415-4.54 3.758-5.173 10.485-1.415 15.025.03.03 2.28 2.94 3.38 6.66 1.26 4.37.46 7.58-2.72 10.76-8.63 8.68-11.52 20.05-8.08 32" transform="translate(-352 -85.34)"></path></g><g transform="matrix(.26 0 0 .26 75.714 16.898)"><linearGradient id="c" x1="0" x2="1" y1="0" y2="0" gradientUnits="objectBoundingBox"><stop offset="0%" stop-color="#f00b51"></stop><stop offset="100%" stop-color="#730062"></stop></linearGradient><path fill="url(#c)" d="M248.19 102.67a65 65 0 0 0 9.98 21.13l.02-.02a10.67 10.67 0 0 0 17-12.86 45 45 0 0 1-6.53-14.3c-2.46-9.85-.5-18.2 6-25.56 11.4-12.89 15.03-28.7 10.5-45.72a65 65 0 0 0-10-21.13v.01c-3.591-4.565-10.177-5.415-14.81-1.91-4.632 3.504-5.606 10.072-2.19 14.77h-.02c.05.06 4.5 6.1 6.55 14.32 2.45 9.83.48 18.19-6.02 25.54-11.39 12.89-15.01 28.7-10.48 45.73" transform="translate(-266.67 -63.88)"></path></g><g transform="matrix(.26 0 0 .26 53.526 22.47)"><linearGradient id="d" x1="0" x2="1" y1="0" y2="0" gradientUnits="objectBoundingBox"><stop offset="0%" stop-color="#f00b51"></stop><stop offset="100%" stop-color="#730062"></stop></linearGradient><path fill="url(#d)" d="M165.7 109.56a44 44 0 0 0 7.33 14.47c3.698 4.584 10.411 5.303 14.995 1.605s5.303-10.411 1.605-14.995h.01c-.02-.03-2.33-3.08-3.44-6.97-1.3-4.54-.5-7.84 2.7-11.05 8.66-8.7 11.52-19.99 8.05-31.81a43 43 0 0 0-7.39-14.25v-.01l-.01-.03v.01a10.65 10.65 0 0 0-18.89 6.8c0 2.6.93 4.97 2.46 6.81.02.03 2.27 2.94 3.36 6.66 1.28 4.37.47 7.58-2.7 10.76-8.65 8.68-11.52 20.05-8.08 32" transform="translate(-181.34 -85.31)"></path></g><path fill="#010c80" d="M167.13 110.73q-4.37 0-8.13-1.43-3.75-1.43-6.5-4.08-2.76-2.64-4.3-6.21-1.54-3.56-1.54-7.83 0-4.26 1.54-7.83 1.54-3.56 4.32-6.21 2.78-2.64 6.51-4.07 3.73-1.44 8.15-1.44 4.92 0 8.89 1.71 3.97 1.7 6.67 4.99l-5.62 5.18q-1.94-2.21-4.32-3.32-2.38-1.1-5.18-1.1-2.65 0-4.86.86-2.22.86-3.84 2.48-1.62 1.62-2.51 3.84-.89 2.21-.89 4.91t.89 4.92q.89 2.21 2.51 3.83 1.62 1.62 3.84 2.48 2.21.87 4.86.87 2.8 0 5.18-1.11t4.32-3.37l5.62 5.18q-2.7 3.29-6.67 5.02-3.97 1.73-8.94 1.73m30.24-.65h-8.75v-37.8h16.36q5.08 0 8.75 1.65t5.67 4.72q2 3.08 2 7.35 0 4.21-2 7.26t-5.67 4.67q-3.67 1.62-8.75 1.62h-11.5l3.89-3.83zm24.73 0h-9.45l-9.45-13.71h9.34zm-24.73-34.83v21.44l-3.89-4.1h11.02q4.05 0 6.05-1.76 1.99-1.75 1.99-4.83 0-3.13-1.99-4.86-2-1.73-6.05-1.73h-11.02zm39.7 34.83h-8.75v-37.8h8.75zm21.37.65q-4.53 0-8.69-1.21-4.16-1.22-6.7-3.16l2.97-6.59q2.43 1.73 5.76 2.83 3.32 1.11 6.72 1.11 2.59 0 4.18-.51 1.6-.52 2.35-1.43.76-.92.76-2.11 0-1.51-1.19-2.4-1.19-.89-3.13-1.46-1.95-.57-4.29-1.08-2.35-.51-4.7-1.27t-4.3-1.94q-1.94-1.19-3.15-3.14-1.22-1.94-1.22-4.96 0-3.24 1.76-5.92 1.75-2.67 5.29-4.26 3.53-1.6 8.88-1.6 3.56 0 7.02.84 3.46.84 6.1 2.51l-2.7 6.64q-2.64-1.51-5.29-2.24-2.65-.73-5.18-.73-2.54 0-4.16.6-1.62.59-2.32 1.54-.71.94-.71 2.18 0 1.46 1.19 2.35 1.19.89 3.13 1.43 1.95.54 4.3 1.08 2.35.54 4.7 1.25 2.34.7 4.29 1.89 1.94 1.18 3.16 3.13 1.21 1.94 1.21 4.91 0 3.19-1.78 5.83-1.78 2.65-5.32 4.27-3.54 1.62-8.94 1.62m46.07-.65h-8.75v-37.8h16.36q5.08 0 8.75 1.65t5.67 4.72q2 3.08 2 7.35 0 4.21-2 7.29t-5.67 4.72q-3.67 1.65-8.75 1.65h-11.5l3.89-3.94zm0-34.83v21.44l-3.89-4.16h11.01q4.05 0 6.05-1.73 2-1.72 2-4.8 0-3.13-2-4.86-2-1.73-6.05-1.73h-11.01zm39.52 34.83h-8.74v-37.8h16.36q5.07 0 8.75 1.65 3.67 1.65 5.67 4.72 1.99 3.08 1.99 7.35 0 4.21-1.99 7.26-2 3.05-5.67 4.67-3.68 1.62-8.75 1.62h-11.5l3.88-3.83zm24.74 0h-9.45l-9.45-13.71h9.34zm-24.74-34.83v21.44l-3.88-4.1h11.01q4.05 0 6.05-1.76 2-1.75 2-4.83 0-3.13-2-4.86-2-1.73-6.05-1.73h-11.01zm49.31 35.48q-4.49 0-8.29-1.46-3.81-1.46-6.59-4.1-2.78-2.65-4.32-6.21-1.54-3.57-1.54-7.78 0-4.21 1.54-7.77 1.54-3.57 4.35-6.21 2.8-2.65 6.58-4.11 3.78-1.46 8.21-1.46 4.48 0 8.24 1.46 3.75 1.46 6.53 4.11 2.78 2.64 4.35 6.18 1.56 3.54 1.56 7.8 0 4.21-1.56 7.81-1.57 3.59-4.35 6.21-2.78 2.61-6.53 4.07-3.76 1.46-8.18 1.46m-.06-7.45q2.54 0 4.67-.87 2.14-.86 3.76-2.48 1.62-1.62 2.51-3.83.89-2.22.89-4.92 0-2.7-.89-4.91-.89-2.22-2.49-3.84-1.59-1.62-3.75-2.48-2.16-.86-4.7-.86t-4.67.86q-2.13.86-3.75 2.48t-2.51 3.84q-.89 2.21-.89 4.91 0 2.65.89 4.89.89 2.24 2.48 3.86 1.59 1.62 3.75 2.48 2.16.87 4.7.87m35.37-6.97v-7.02h18.15v7.02zm.65-17.01v30.78h-8.75v-37.8h28.57v7.02zm34.52 30.78h-8.75v-37.8h8.75zm42.32.65q-4.37 0-8.12-1.43-3.76-1.43-6.51-4.08-2.76-2.64-4.29-6.21-1.54-3.56-1.54-7.83 0-4.26 1.54-7.83 1.53-3.56 4.32-6.21 2.78-2.64 6.5-4.07 3.73-1.44 8.16-1.44 4.91 0 8.88 1.71 3.97 1.7 6.67 4.99l-5.62 5.18q-1.94-2.21-4.32-3.32-2.37-1.1-5.18-1.1-2.65 0-4.86.86-2.22.86-3.84 2.48-1.62 1.62-2.51 3.84-.89 2.21-.89 4.91t.89 4.92q.89 2.21 2.51 3.83 1.62 1.62 3.84 2.48 2.21.87 4.86.87 2.81 0 5.18-1.11 2.38-1.11 4.32-3.37l5.62 5.18q-2.7 3.29-6.67 5.02-3.97 1.73-8.94 1.73m39.85 0q-4.48 0-8.28-1.46-3.81-1.46-6.59-4.1-2.78-2.65-4.32-6.21-1.54-3.57-1.54-7.78 0-4.21 1.54-7.77 1.54-3.57 4.34-6.21 2.81-2.65 6.59-4.11 3.78-1.46 8.21-1.46 4.48 0 8.24 1.46 3.75 1.46 6.53 4.11 2.78 2.64 4.35 6.18 1.56 3.54 1.56 7.8 0 4.21-1.56 7.81-1.57 3.59-4.35 6.21-2.78 2.61-6.53 4.07-3.76 1.46-8.19 1.46m-.05-7.45q2.54 0 4.67-.87 2.13-.86 3.75-2.48t2.52-3.83q.89-2.22.89-4.92 0-2.7-.89-4.91-.9-2.22-2.49-3.84-1.59-1.62-3.75-2.48-2.16-.86-4.7-.86t-4.67.86q-2.13.86-3.75 2.48t-2.51 3.84q-.9 2.21-.9 4.91 0 2.65.9 4.89.89 2.24 2.48 3.86 1.59 1.62 3.75 2.48 2.16.87 4.7.87m35.92 6.8h-8.64v-37.8h7.24l22.3 27.22h-3.51V72.28h8.64v37.8h-7.18l-22.36-27.21h3.51zm53.08.65q-4.37 0-8.12-1.43-3.76-1.43-6.51-4.08-2.76-2.64-4.29-6.21-1.54-3.56-1.54-7.83 0-4.26 1.54-7.83 1.53-3.56 4.32-6.21 2.78-2.64 6.5-4.07 3.73-1.44 8.16-1.44 4.91 0 8.88 1.71 3.97 1.7 6.67 4.99l-5.62 5.18q-1.94-2.21-4.32-3.32-2.37-1.1-5.18-1.1-2.65 0-4.86.86-2.22.86-3.84 2.48-1.62 1.62-2.51 3.84-.89 2.21-.89 4.91t.89 4.92q.89 2.21 2.51 3.83 1.62 1.62 3.84 2.48 2.21.87 4.86.87 2.81 0 5.18-1.11 2.38-1.11 4.32-3.37l5.62 5.18q-2.7 3.29-6.67 5.02-3.97 1.73-8.94 1.73m29.53-16.42v-6.8h18.2v6.8zm.65-15.01v23.76h20.57v7.02h-29.27v-37.8h28.57v7.02zm36.29 30.78h-8.75v-37.8h16.36q5.08 0 8.75 1.65t5.67 4.72q2 3.08 2 7.35 0 4.21-2 7.29t-5.67 4.72q-3.67 1.65-8.75 1.65h-11.5l3.89-3.94zm0-34.83v21.44l-3.89-4.16h11.01q4.05 0 6.05-1.73 2-1.72 2-4.8 0-3.13-2-4.86-2-1.73-6.05-1.73h-11.01zm47.35 34.83h-8.74V79.41h-12.1v-7.13h32.94v7.13h-12.1z"></path></svg></svg>